<?xml version="1.0" encoding="utf-8"?>
<!-- Generator: Adobe Illustrator 22.0.1, SVG Export Plug-In . SVG Version: 6.00 Build 0)  -->
<svg version="1.1" xmlns="http://www.w3.org/2000/svg" xmlns:xlink="http://www.w3.org/1999/xlink" x="0px" y="0px"
	 viewBox="0 0 70.2 30.2" style="enable-background:new 0 0 70.2 30.2;" xml:space="preserve">
<style type="text/css">
	.st0{display:none;}
	.st1{display:inline;}
	.st2{fill:#FFFFFF;}
	.st3{fill:#BBBBBB;}
	.st4{fill:none;stroke:#BBBBBB;stroke-width:3;stroke-linecap:round;stroke-miterlimit:10;}
	.st5{fill:#0081C4;}
	.st6{fill:none;stroke:#FFFFFF;stroke-width:3;stroke-linecap:round;stroke-miterlimit:10;}
</style>
<g id="Capa_1" class="st0">
	<g class="st1">
		<rect x="0.1" y="0.1" class="st2" width="30" height="30"/>
		<g>
			<path class="st3" d="M29.1,1.1v28h-28v-28H29.1 M30.1,0.1h-30v30h30V0.1L30.1,0.1z"/>
		</g>
		<polyline class="st4" points="7.5,15.1 13.2,19.6 22.6,9.3 		"/>
	</g>
	<g class="st1">
		<rect x="39.1" y="0.1" class="st5" width="30" height="30"/>
		<g>
			<path class="st5" d="M68.1,1.1v28h-28v-28H68.1 M69.1,0.1h-30v30h30V0.1L69.1,0.1z"/>
		</g>
		<polyline class="st6" points="46.5,15.1 52.2,19.6 61.6,9.3 		"/>
	</g>
</g>
<g id="Capa_1_사본">
	<g>
		<circle class="st2" cx="15.1" cy="15.1" r="15"/>
		<g>
			<path class="st3" d="M15.1,1.1c7.7,0,14,6.3,14,14s-6.3,14-14,14s-14-6.3-14-14S7.3,1.1,15.1,1.1 M15.1,0.1c-8.3,0-15,6.7-15,15
				s6.7,15,15,15s15-6.7,15-15S23.3,0.1,15.1,0.1L15.1,0.1z"/>
		</g>
		<g>
			<circle class="st3" cx="15.1" cy="15.1" r="6.1"/>
		</g>
	</g>
	<g>
		<circle class="st2" cx="54.1" cy="15.1" r="15"/>
		<g>
			<circle class="st5" cx="54.1" cy="15.1" r="15"/>
		</g>
		<g>
			<circle class="st2" cx="54.1" cy="15.1" r="6.1"/>
		</g>
	</g>
</g>
</svg>
